<?xml version="1.0" encoding="iso-8859-1"?>
<!-- Generator: Adobe Illustrator 18.1.1, SVG Export Plug-In . SVG Version: 6.00 Build 0)  -->
<svg xmlns="http://www.w3.org/2000/svg" xmlns:xlink="http://www.w3.org/1999/xlink" version="1.1" id="Capa_1" x="0px" y="0px" viewBox="0 0 193.112 193.112" style="enable-background:new 0 0 193.112 193.112;" xml:space="preserve" width="512px" height="512px">
<g>
	<g>
		<path d="M108.4,127.26c-1.814-1.235-5.227-2.566-10.287-3.98v-15.89c3.007,0.095,5.185,1.259,6.564,3.455    c0.746,1.193,1.187,2.619,1.349,4.272h5.704c-0.107-3.682-1.319-6.653-3.634-8.903c-2.315-2.25-5.627-3.52-9.977-3.831v-4.278    h-3.103v4.344c-4.368,0.06-7.775,1.396-10.197,4.057c-2.423,2.661-3.634,5.639-3.634,8.938c0,3.705,1.122,6.593,3.371,8.682    c2.25,2.106,5.746,3.592,10.46,4.475v17.787c-3.682-0.304-6.2-1.683-7.566-4.141c-0.77-1.366-1.247-3.55-1.414-6.534H80.26    c0,3.747,0.621,6.713,1.862,8.915c2.267,4.075,6.581,6.313,12.894,6.725v6.337h3.103v-6.337c3.95-0.424,6.957-1.331,9.046-2.673    c3.777-2.434,5.651-6.558,5.651-12.334C112.816,132.326,111.342,129.307,108.4,127.26z M95.016,122.653    c-2.423-0.477-4.356-1.331-5.818-2.542c-1.42-1.223-2.142-2.9-2.142-5.072c0-1.784,0.609-3.497,1.826-5.114    c1.223-1.635,3.27-2.506,6.134-2.613V122.653L95.016,122.653z M105.834,142.463c-1.42,2.554-3.986,3.914-7.715,4.093v-17.179    c2.727,0.746,4.66,1.528,5.824,2.351c1.999,1.42,3.001,3.485,3.001,6.2C106.932,139.653,106.568,141.169,105.834,142.463z" fill="#FFFFFF"/>
		<path d="M175.199,63.08h-17.411l-37.663-37.663c2.297-4.266,1.689-9.672-1.897-13.276    c-4.392-4.38-11.522-4.38-15.914,0c-4.386,4.392-4.386,11.528,0,15.914c3.598,3.604,9.016,4.195,13.27,1.903l33.128,33.122H44.394    l33.122-33.122c4.254,2.291,9.672,1.689,13.27-1.903c4.386-4.386,4.386-11.522,0-15.914c-4.392-4.38-11.522-4.38-15.914,0    c-3.604,3.604-4.195,9.01-1.897,13.276L35.312,63.08H17.901C8.055,63.08,0,69.047,0,76.333c0,6.176,5.806,11.361,13.563,12.811    l7.429,77.331c1.104,9.792,10.066,17.781,19.905,17.781h111.318c9.839,0,18.802-8.008,19.905-17.781l7.435-77.331    c7.763-1.45,13.557-6.635,13.557-12.811C193.1,69.047,185.045,63.08,175.199,63.08z M96.538,165.424    c-20.741,0-37.526-16.803-37.526-37.532s16.785-37.526,37.526-37.526c20.729,0,37.52,16.797,37.52,37.526    S117.267,165.424,96.538,165.424z" fill="#FFFFFF"/>
	</g>
</g>
<g>
</g>
<g>
</g>
<g>
</g>
<g>
</g>
<g>
</g>
<g>
</g>
<g>
</g>
<g>
</g>
<g>
</g>
<g>
</g>
<g>
</g>
<g>
</g>
<g>
</g>
<g>
</g>
<g>
</g>
</svg>
